# xmcd
#
# Track frame offsets:
#        150
#        18757
#        39425
#        55565
#        66540
#        79805
#        89850
#        105412
#        123927
#        140497
#        155967
#        167775
#        184130
#
# Disc length: 2672 seconds
#
# Revision: 3
# Processed by: cddbd v1.5.1PL2 Copyright (c) Steve Scherf et al.
# Submitted via: ExactAudioCopy v0.95b3
#
DISCID=b00a6e0d
DTITLE=Beastie Boys - Licensed To Ill
DYEAR=1986
DGENRE=Hip-Hop
TTITLE0=Rhymin and Stealin
TTITLE1=The New Style
TTITLE2=She's Crafty
TTITLE3=Posse In Effect
TTITLE4=Slow Ride
TTITLE5=Girls
TTITLE6=Fight For Your Right
TTITLE7=No Sleep Till Brooklyn
TTITLE8=Paul Revere
TTITLE9=Hold It Now, Hit It
TTITLE10=Brass Monkey
TTITLE11=Slow And Low
TTITLE12=Time To Get Ill
EXTD=
EXTT0=
EXTT1=
EXTT2=
EXTT3=
EXTT4=
EXTT5=
EXTT6=
EXTT7=
EXTT8=
EXTT9=
EXTT10=
EXTT11=
EXTT12=
PLAYORDER=
